<?xml version="1.0" encoding="utf-8"?>
<!-- Generator: Adobe Illustrator 22.1.0, SVG Export Plug-In . SVG Version: 6.00 Build 0)  -->
<svg version="1.1" id="Слой_1" xmlns="http://www.w3.org/2000/svg" xmlns:xlink="http://www.w3.org/1999/xlink" x="0px" y="0px"
	 viewBox="0 0 61 61" style="enable-background:new 0 0 61 61;" xml:space="preserve">
<style type="text/css">
	.st0{fill:none;stroke:#E87C40;stroke-width:5;stroke-linecap:round;stroke-linejoin:round;}
	.st1{fill:none;stroke:#FFFFFF;stroke-width:5;stroke-linecap:round;stroke-linejoin:round;}
</style>
<path class="st0" d="M40.4,48.3c3.4,0,6.1-2.7,6.1-6c0-3.3-2.7-6-6.1-6c-3.4,0-6.1,2.7-6.1,6C34.3,45.6,37,48.3,40.4,48.3z"/>
<path class="st0" d="M16.1,24.1c3.4,0,6.1-2.7,6.1-6c0-3.3-2.7-6-6.1-6S10,14.7,10,18C10,21.4,12.7,24.1,16.1,24.1z"/>
<path class="st0" d="M30.2,18h6.1c1.1,0,2.1,0.4,2.9,1.2s1.2,1.8,1.2,2.8v14.1"/>
<path class="st0" d="M16.1,24.6v23.6"/>
<path class="st1" d="M49.4,41.3c3.4,0,6.1-2.7,6.1-6c0-3.3-2.7-6-6.1-6c-3.4,0-6.1,2.7-6.1,6C43.3,38.6,46,41.3,49.4,41.3z"/>
<path class="st1" d="M25.1,17.1c3.4,0,6.1-2.7,6.1-6c0-3.3-2.7-6-6.1-6S19,7.7,19,11C19,14.4,21.7,17.1,25.1,17.1z"/>
<path class="st1" d="M39.2,11h6.1c1.1,0,2.1,0.4,2.9,1.2c0.8,0.8,1.2,1.8,1.2,2.8v14.1"/>
<path class="st1" d="M25.1,17.1v24.2"/>
</svg>
