<?xml version="1.0" encoding="utf-8"?>
<!-- Generator: Adobe Illustrator 22.1.0, SVG Export Plug-In . SVG Version: 6.00 Build 0)  -->
<svg version="1.1" id="Слой_1" xmlns="http://www.w3.org/2000/svg" xmlns:xlink="http://www.w3.org/1999/xlink" x="0px" y="0px"
	 viewBox="0 0 26 26" style="enable-background:new 0 0 26 26;" xml:space="preserve">
<style type="text/css">
	.st0{clip-path:url(#SVGID_2_);}
	.st1{fill:#FFFFFF;}
</style>
<g>
	<defs>
		<rect id="SVGID_1_" y="0" width="26" height="26"/>
	</defs>
	<clipPath id="SVGID_2_">
		<use xlink:href="#SVGID_1_"  style="overflow:visible;"/>
	</clipPath>
	<g class="st0">
		<path class="st1" d="M1.6,13c0,3,1.2,5.9,3.3,8c2.1,2.1,5,3.3,8,3.3c3,0,5.9-1.2,8-3.3c2.1-2.1,3.3-5,3.3-8c0-3-1.2-5.9-3.3-8
			c-2.1-2.1-5-3.3-8-3.3c-3,0-5.9,1.2-8,3.3S1.6,10,1.6,13z M26,13c0,3.4-1.4,6.8-3.8,9.2S16.4,26,13,26c-3.4,0-6.8-1.4-9.2-3.8
			S0,16.4,0,13c0-3.4,1.4-6.8,3.8-9.2S9.6,0,13,0c3.4,0,6.8,1.4,9.2,3.8S26,9.6,26,13z M18.7,12.2c0.2,0,0.4,0.1,0.6,0.2
			c0.2,0.2,0.2,0.4,0.2,0.6s-0.1,0.4-0.2,0.6c-0.2,0.2-0.4,0.2-0.6,0.2H9.3l3.5,3.5c0.1,0.1,0.1,0.2,0.2,0.3c0,0.1,0.1,0.2,0.1,0.3
			s0,0.2-0.1,0.3c0,0.1-0.1,0.2-0.2,0.3c-0.1,0.1-0.2,0.1-0.3,0.2c-0.1,0-0.2,0.1-0.3,0.1s-0.2,0-0.3-0.1c-0.1,0-0.2-0.1-0.3-0.2
			l-4.9-4.9c-0.1-0.1-0.1-0.2-0.2-0.3c0-0.1-0.1-0.2-0.1-0.3s0-0.2,0.1-0.3c0-0.1,0.1-0.2,0.2-0.3l4.9-4.9c0.2-0.2,0.4-0.2,0.6-0.2
			s0.4,0.1,0.6,0.2C12.9,7.7,13,7.9,13,8.1s-0.1,0.4-0.2,0.6l-3.5,3.5H18.7z"/>
	</g>
</g>
</svg>
