<?xml version="1.0" encoding="utf-8"?>
<!-- Generator: Adobe Illustrator 22.1.0, SVG Export Plug-In . SVG Version: 6.00 Build 0)  -->
<svg version="1.1" id="Слой_1" xmlns="http://www.w3.org/2000/svg" xmlns:xlink="http://www.w3.org/1999/xlink" x="0px" y="0px"
	 viewBox="0 0 61 61" style="enable-background:new 0 0 61 61;" xml:space="preserve">
<style type="text/css">
	.st0{fill:none;stroke:#E87C40;stroke-width:4;stroke-linecap:round;stroke-linejoin:round;}
	.st1{fill:none;stroke:#FFFFFF;stroke-width:4;stroke-linecap:round;stroke-linejoin:round;}
</style>
<path class="st0" d="M39.5,26.7l-19-10.9"/>
<path class="st0" d="M49,40.7V23.8c0-0.7-0.2-1.5-0.6-2.1c-0.4-0.6-0.9-1.2-1.5-1.5l-14.8-8.4c-0.6-0.4-1.4-0.6-2.1-0.6
	c-0.7,0-1.5,0.2-2.1,0.6l-14.8,8.4c-0.6,0.4-1.2,0.9-1.5,1.5C11.2,22.3,11,23,11,23.8v16.9c0,0.7,0.2,1.5,0.6,2.1
	c0.4,0.6,0.9,1.2,1.5,1.5l14.8,8.4c0.6,0.4,1.4,0.6,2.1,0.6c0.7,0,1.5-0.2,2.1-0.6l14.8-8.4c0.6-0.4,1.2-0.9,1.5-1.5
	C48.8,42.1,49,41.4,49,40.7z"/>
<path class="st0" d="M11.6,21.6L30,32.2l18.4-10.7"/>
<path class="st0" d="M30,53.5V32.2"/>
<path class="st1" d="M46.5,19.7l-19-10.9"/>
<path class="st1" d="M56,33.7V16.8c0-0.7-0.2-1.5-0.6-2.1c-0.4-0.6-0.9-1.2-1.5-1.5L39.1,4.7c-0.6-0.4-1.4-0.6-2.1-0.6
	c-0.7,0-1.5,0.2-2.1,0.6l-14.8,8.4c-0.6,0.4-1.2,0.9-1.5,1.5C18.2,15.3,18,16,18,16.8v16.9c0,0.7,0.2,1.5,0.6,2.1
	c0.4,0.6,0.9,1.2,1.5,1.5l14.8,8.4c0.6,0.4,1.4,0.6,2.1,0.6c0.7,0,1.5-0.2,2.1-0.6l14.8-8.4c0.6-0.4,1.2-0.9,1.5-1.5
	C55.8,35.1,56,34.4,56,33.7z"/>
<path class="st1" d="M18.6,14.6L37,25.2l18.4-10.7"/>
<path class="st1" d="M37,46.5V25.2"/>
</svg>
