<?xml version="1.0" encoding="utf-8"?>
<!-- Generator: Adobe Illustrator 22.1.0, SVG Export Plug-In . SVG Version: 6.00 Build 0)  -->
<svg version="1.1" id="Слой_1" xmlns="http://www.w3.org/2000/svg" xmlns:xlink="http://www.w3.org/1999/xlink" x="0px" y="0px"
	 viewBox="0 0 61 61" style="enable-background:new 0 0 61 61;" xml:space="preserve">
<style type="text/css">
	.st0{fill:none;stroke:#E87C40;stroke-width:5;stroke-linecap:round;stroke-linejoin:round;}
	.st1{fill:none;stroke:#FFFFFF;stroke-width:5;stroke-linecap:round;stroke-linejoin:round;}
</style>
<path class="st0" d="M45,40c0,1.1-0.4,2.1-1.1,2.8c-0.7,0.8-1.7,1.2-2.7,1.2H18.6L11,52V20c0-1.1,0.4-2.1,1.1-2.8
	c0.7-0.8,1.7-1.2,2.7-1.2h26.4c1,0,2,0.4,2.7,1.2c0.7,0.8,1.1,1.8,1.1,2.8V40z"/>
<path class="st1" d="M53,33c0,1.1-0.4,2.1-1.1,2.8c-0.7,0.8-1.7,1.2-2.7,1.2H26.6L19,45V13c0-1.1,0.4-2.1,1.1-2.8
	C20.8,9.4,21.8,9,22.8,9h26.4c1,0,2,0.4,2.7,1.2c0.7,0.8,1.1,1.8,1.1,2.8V33z"/>
</svg>
