<?xml version="1.0" encoding="utf-8"?>
<!-- Generator: Adobe Illustrator 22.1.0, SVG Export Plug-In . SVG Version: 6.00 Build 0)  -->
<svg version="1.1" id="Слой_1" xmlns="http://www.w3.org/2000/svg" xmlns:xlink="http://www.w3.org/1999/xlink" x="0px" y="0px"
	 viewBox="0 0 24 24" style="enable-background:new 0 0 24 24;" xml:space="preserve">
<style type="text/css">
	.st0{fill:#FFFFFF;}
	.st1{fill:#E87C40;}
</style>
<path class="st0" d="M6.9,22.7c-3.9,0-5.7-1.7-5.7-5.6v-4.2C1.3,9,3,7.2,6.9,7.2h4.2c3.9,0,5.6,1.7,5.6,5.6V17
	c0,3.9-1.7,5.6-5.6,5.6H6.9V22.7z M2.8,12.9v4.2c0,3.1,1,4.1,4.2,4.1h4.2c3.1,0,4.1-1,4.1-4.1v-4.2c0-3.1-1.1-4.1-4.1-4.1H6.9
	C3.8,8.7,2.8,9.8,2.8,12.9z"/>
<path class="st1" d="M12.8,16.7c-3.9,0-5.7-1.7-5.7-5.6V6.9C7.2,3,8.9,1.2,12.8,1.2H17c3.9,0,5.6,1.7,5.6,5.6V11
	c0,3.9-1.7,5.6-5.6,5.6h-4.2V16.7z M8.7,6.9v4.2c0,3.1,1,4.1,4.2,4.1h4.2c3.1,0,4.1-1,4.1-4.1V6.9c0-3.1-1.1-4.1-4.1-4.1h-4.3
	C9.7,2.7,8.7,3.8,8.7,6.9z"/>
</svg>
