<?xml version="1.0" encoding="utf-8"?>
<!-- Generator: Adobe Illustrator 22.1.0, SVG Export Plug-In . SVG Version: 6.00 Build 0)  -->
<svg version="1.1" id="Слой_1" xmlns="http://www.w3.org/2000/svg" xmlns:xlink="http://www.w3.org/1999/xlink" x="0px" y="0px"
	 viewBox="0 0 61 61" style="enable-background:new 0 0 61 61;" xml:space="preserve">
<style type="text/css">
	.st0{fill:none;stroke:#E87C40;stroke-width:4;stroke-linecap:round;stroke-linejoin:round;}
	.st1{fill:none;stroke:#FFFFFF;stroke-width:4;stroke-linecap:round;stroke-linejoin:round;}
</style>
<path class="st0" d="M28.2,24.1c9.3,0,16.8-2.5,16.8-5.6s-7.5-5.6-16.8-5.6c-9.3,0-16.8,2.5-16.8,5.6S19,24.1,28.2,24.1z"/>
<path class="st0" d="M45,31.6c0,3.1-7.5,5.6-16.8,5.6s-16.8-2.5-16.8-5.6"/>
<path class="st0" d="M11.5,18.5v26.1c0,3.1,7.5,5.6,16.8,5.6S45,47.7,45,44.6V18.5"/>
<path class="st1" d="M38.2,17.1c9.3,0,16.8-2.5,16.8-5.6c0-3.1-7.5-5.6-16.8-5.6c-9.3,0-16.8,2.5-16.8,5.6
	C21.5,14.6,29,17.1,38.2,17.1z"/>
<path class="st1" d="M55,24.6c0,3.1-7.5,5.6-16.8,5.6s-16.8-2.5-16.8-5.6"/>
<path class="st1" d="M21.5,11.5v26.1c0,3.1,7.5,5.6,16.8,5.6S55,40.7,55,37.6V11.5"/>
</svg>
