<svg width="26" height="26" viewBox="0 0 26 26" fill="none" xmlns="http://www.w3.org/2000/svg">
<path d="M21.1818 3.24675C20.921 3.26573 20.665 3.32692 20.4238 3.42794H20.4205C20.1889 3.51975 19.088 3.98288 17.4143 4.68488L11.4164 7.21094C7.11257 9.02282 2.88188 10.8071 2.88188 10.8071L2.93226 10.7876C2.93226 10.7876 2.64057 10.8834 2.33588 11.0923C2.14765 11.212 1.98567 11.3688 1.85976 11.5529C1.71026 11.7723 1.59001 12.1079 1.63469 12.4548C1.70782 13.0414 2.08807 13.3933 2.36107 13.5874C2.63732 13.7841 2.90057 13.8759 2.90057 13.8759H2.90707L6.87451 15.2124C7.05244 15.7836 8.0835 19.1734 8.33132 19.9542C8.47757 20.4206 8.61975 20.7123 8.79769 20.9349C8.88382 21.0486 8.98457 21.1437 9.10563 21.2201C9.16857 21.2567 9.23567 21.2856 9.3055 21.3062L9.26488 21.2964C9.27707 21.2997 9.28682 21.3094 9.29575 21.3127C9.32825 21.3216 9.35019 21.3249 9.39163 21.3314C10.0197 21.5215 10.5243 21.1315 10.5243 21.1315L10.5527 21.1088L12.8951 18.9759L16.8211 21.9879L16.9105 22.0261C17.7287 22.3852 18.5574 22.1853 18.9954 21.8327C19.4366 21.4776 19.608 21.0234 19.608 21.0234L19.6364 20.9503L22.6703 5.408C22.7564 5.0245 22.7784 4.66538 22.6833 4.31682C22.5853 3.96405 22.3589 3.66065 22.0488 3.46613C21.7883 3.30779 21.4862 3.23136 21.1818 3.24675ZM21.0998 4.91238C21.0965 4.96357 21.1063 4.95788 21.0835 5.05619V5.06513L18.0781 20.4458C18.0651 20.4677 18.0431 20.5156 17.983 20.5636C17.9196 20.6139 17.8693 20.6456 17.6052 20.5408L12.8033 16.8594L9.90269 19.5033L10.5121 15.6114L18.3576 8.29888C18.6809 7.99825 18.5729 7.93488 18.5729 7.93488C18.5956 7.566 18.0846 7.82682 18.0846 7.82682L8.19157 13.9555L8.18832 13.9393L3.44657 12.3427V12.3394L3.43438 12.337C3.44269 12.3342 3.45083 12.331 3.45876 12.3273L3.48476 12.3143L3.50994 12.3053C3.50994 12.3053 7.74388 10.5211 12.0477 8.70919C14.2024 7.80163 16.3734 6.88757 18.0431 6.18232C19.7128 5.48113 20.947 4.96682 21.0169 4.93919C21.0835 4.91319 21.0518 4.91319 21.0998 4.91319V4.91238Z" fill="white"/>
</svg>
